####
#
# OBJ File Generated by Meshlab
#
####
# Object franka_finger_lower_wide_curved.obj
#
# Vertices: 110
# Faces: 216
#
####

vn 0.689963 0.056466 -0.721639
v 0.009000 0.014312 0.000000
vn -0.689963 0.056466 -0.721639
v -0.009000 0.014312 0.000000
vn 0.673716 0.227090 -0.703233
v 0.009000 0.015234 0.000145
vn -0.673716 0.227090 -0.703233
v -0.009000 0.015234 0.000145
vn 0.673716 0.432204 -0.599422
v 0.009000 0.016067 0.000567
vn -0.673716 0.432204 -0.599422
v -0.009000 0.016067 0.000567
vn 0.673716 0.595492 -0.437603
v 0.009000 0.016730 0.001224
vn -0.673716 0.595491 -0.437603
v -0.009000 0.016730 0.001224
vn 0.692073 0.662202 -0.287270
v 0.009000 0.017159 0.002052
vn -0.692073 0.662202 -0.287270
v -0.009000 0.017159 0.002052
vn 0.711559 0.657409 -0.247986
v 0.009000 0.018474 0.005758
vn -0.711559 0.657409 -0.247986
v -0.009000 0.018474 0.005758
vn -0.711559 0.647151 -0.273640
v -0.009000 0.019934 0.009409
vn 0.711559 0.647152 -0.273640
v 0.009000 0.019934 0.009409
vn -0.689854 0.641060 -0.336369
v -0.009000 0.021536 0.013000
vn 0.689854 0.641060 -0.336369
v 0.009000 0.021536 0.013000
vn 0.642370 0.628302 -0.438860
v 0.009052 0.021798 0.013552
vn -0.641706 0.628645 -0.439340
v -0.009052 0.021798 0.013552
vn 0.580583 0.606863 -0.542808
v 0.009211 0.022063 0.014104
vn -0.580530 0.607167 -0.542525
v -0.009211 0.022063 0.014104
vn 0.505510 0.587858 -0.631572
v 0.009476 0.022316 0.014620
vn -0.504785 0.588256 -0.631782
v -0.009476 0.022316 0.014620
vn 0.418510 0.573391 -0.704324
v 0.009832 0.022540 0.015073
vn -0.418562 0.573717 -0.704027
v -0.009832 0.022540 0.015073
vn 0.322875 0.562183 -0.761382
v 0.010270 0.022729 0.015450
vn -0.322875 0.562183 -0.761382
v -0.010270 0.022729 0.015450
vn 0.217440 0.555956 -0.802267
v 0.010801 0.022880 0.015750
vn -0.217440 0.555956 -0.802267
v -0.010801 0.022880 0.015750
vn 0.109404 0.550883 -0.827380
v 0.011393 0.022976 0.015937
vn -0.109404 0.550884 -0.827380
v -0.011393 0.022976 0.015937
vn 0.627958 0.426557 -0.650937
v 0.012000 0.023008 0.016000
vn -0.627959 0.426555 -0.650937
v -0.012000 0.023008 0.016000
vn 0.708210 0.625383 -0.327622
v 0.012000 0.023458 0.016869
vn -0.708210 0.625382 -0.327622
v -0.012000 0.023458 0.016869
vn 0.708209 0.622147 -0.333725
v 0.012000 0.023916 0.017734
vn -0.708210 0.622147 -0.333725
v -0.012000 0.023916 0.017734
vn 0.698348 0.642041 -0.316375
v 0.012000 0.024383 0.018594
vn -0.698348 0.642041 -0.316375
v -0.012000 0.024383 0.018594
vn -0.715165 -0.555871 0.423729
v -0.009000 0.013586 0.003448
vn -0.714247 -0.583715 0.386171
v -0.009000 0.014218 0.004341
vn -0.713474 -0.606318 0.351190
v -0.009000 0.014827 0.005329
vn -0.716246 -0.521481 0.463734
v -0.009000 0.012933 0.002652
vn -0.717498 -0.479012 0.505712
v -0.009000 0.012262 0.001956
vn -0.718905 -0.426808 0.548643
v -0.009000 0.011576 0.001363
vn -0.720417 -0.363339 0.590749
v -0.009000 0.010877 0.000875
vn -0.721921 -0.287667 0.629347
v -0.009000 0.010167 0.000493
vn -0.723241 -0.200103 0.660970
v -0.009000 0.009449 0.000220
vn -0.724160 -0.102819 0.681924
v -0.009000 0.008726 0.000055
vn -0.537118 -0.842906 -0.031847
v -0.009000 0.008000 0.000000
vn -0.712825 -0.624741 0.318714
v -0.009000 0.015412 0.006406
vn -0.712282 -0.639831 0.288566
v -0.009000 0.015969 0.007570
vn -0.711828 -0.652249 0.260525
v -0.009000 0.016497 0.008816
vn -0.713511 -0.662621 0.227676
v -0.009000 0.016994 0.010140
vn -0.704356 -0.688932 0.171043
v -0.009000 0.017887 0.013000
vn -0.706370 -0.707715 0.013458
v -0.012000 0.019996 0.030733
vn -0.712950 -0.700612 0.029086
v -0.012000 0.019936 0.026914
vn 0.706369 -0.707715 0.013458
v 0.012000 0.019996 0.030733
vn 0.712949 -0.700612 0.029086
v 0.012000 0.019936 0.026914
vn -0.713165 -0.697905 0.065760
v -0.012000 0.019682 0.023145
vn 0.713166 -0.697904 0.065760
v 0.012000 0.019682 0.023145
vn -0.713571 -0.692808 0.104084
v -0.012000 0.019239 0.019487
vn 0.713571 -0.692808 0.104084
v 0.012000 0.019239 0.019487
vn -0.596227 -0.632593 -0.494307
v -0.012000 0.018613 0.016000
vn 0.596230 -0.632588 -0.494310
v 0.012000 0.018613 0.016000
vn 0.153916 -0.795478 -0.586110
v 0.011413 0.018601 0.015942
vn -0.153916 -0.795476 -0.586112
v -0.011413 0.018601 0.015942
vn 0.299829 -0.789867 -0.534988
v 0.010833 0.018563 0.015763
vn -0.299829 -0.789867 -0.534988
v -0.010833 0.018563 0.015763
vn 0.429393 -0.781015 -0.453473
v 0.010321 0.018502 0.015486
vn -0.429393 -0.781015 -0.453473
v -0.010321 0.018502 0.015486
vn 0.537369 -0.769432 -0.345266
v 0.009868 0.018418 0.015110
vn -0.537427 -0.769704 -0.344571
v -0.009868 0.018418 0.015110
vn 0.618732 -0.754606 -0.218497
v 0.009492 0.018309 0.014645
vn -0.618285 -0.754918 -0.218684
v -0.009492 0.018309 0.014645
vn -0.669881 -0.738072 -0.080677
v -0.009225 0.018186 0.014141
vn -0.691527 -0.719739 0.061365
v -0.009058 0.018044 0.013585
vn 0.691828 -0.719423 0.061671
v 0.009058 0.018044 0.013585
vn 0.670111 -0.737789 -0.081354
v 0.009225 0.018186 0.014141
vn 0.704356 -0.688932 0.171043
v 0.009000 0.017887 0.013000
vn 0.713511 -0.662621 0.227676
v 0.009000 0.016994 0.010140
vn 0.711828 -0.652249 0.260525
v 0.009000 0.016497 0.008816
vn 0.712282 -0.639831 0.288566
v 0.009000 0.015969 0.007570
vn 0.712825 -0.624741 0.318714
v 0.009000 0.015412 0.006406
vn 0.713474 -0.606318 0.351190
v 0.009000 0.014827 0.005329
vn 0.714247 -0.583715 0.386171
v 0.009000 0.014218 0.004341
vn 0.715165 -0.555871 0.423729
v 0.009000 0.013586 0.003448
vn 0.716246 -0.521480 0.463734
v 0.009000 0.012933 0.002652
vn 0.717498 -0.479012 0.505712
v 0.009000 0.012262 0.001956
vn 0.718906 -0.426808 0.548644
v 0.009000 0.011576 0.001363
vn 0.720417 -0.363338 0.590749
v 0.009000 0.010877 0.000875
vn 0.721921 -0.287667 0.629347
v 0.009000 0.010167 0.000493
vn 0.723241 -0.200103 0.660970
v 0.009000 0.009449 0.000220
vn 0.724161 -0.102819 0.681924
v 0.009000 0.008726 0.000055
vn 0.537118 -0.842906 -0.031844
v 0.009000 0.008000 0.000000
vn -0.708109 -0.705990 0.012597
v -0.012000 0.019998 0.030822
vn -0.708114 -0.706070 0.006298
v -0.012000 0.020000 0.030911
vn -0.707608 -0.706604 0.001572
v -0.012000 0.020000 0.031000
vn -0.577352 0.577349 0.577349
v -0.012000 0.025000 0.091000
vn -0.697811 0.715655 -0.029964
v -0.012000 0.025000 0.021000
vn -0.688767 0.684739 -0.238185
v -0.012000 0.024722 0.019357
vn -0.688768 0.714851 -0.120780
v -0.012000 0.024930 0.020167
vn -0.577350 -0.577350 0.577350
v -0.012000 0.020000 0.091000
vn 0.688767 0.684739 -0.238184
v 0.012000 0.024722 0.019357
vn 0.697811 0.715655 -0.029964
v 0.012000 0.025000 0.021000
vn 0.688767 0.714851 -0.120780
v 0.012000 0.024930 0.020167
vn 0.708109 -0.705990 0.012597
v 0.012000 0.019998 0.030822
vn 0.708115 -0.706070 0.006298
v 0.012000 0.020000 0.030911
vn 0.707608 -0.706604 0.001572
v 0.012000 0.020000 0.031000
vn 0.577350 -0.577350 0.577350
v 0.012000 0.020000 0.091000
vn 0.577352 0.577349 0.577349
v 0.012000 0.025000 0.091000
# 110 vertices, 0 vertices normals


usemtl material_0
f 1//1 2//2 3//3
f 3//3 2//2 4//4
f 3//3 4//4 5//5
f 5//5 4//4 6//6
f 5//5 6//6 7//7
f 7//7 6//6 8//8
f 7//7 8//8 9//9
f 9//9 8//8 10//10
f 9//9 10//10 11//11
f 11//11 10//10 12//12
f 11//11 12//12 13//13
f 11//11 13//13 14//14
f 14//14 13//13 15//15
f 14//14 15//15 16//16
f 16//16 15//15 17//17
f 17//17 15//15 18//18
f 17//17 18//18 19//19
f 19//19 18//18 20//20
f 19//19 20//20 21//21
f 21//21 20//20 22//22
f 21//21 22//22 23//23
f 23//23 22//22 24//24
f 23//23 24//24 25//25
f 25//25 24//24 26//26
f 25//25 26//26 27//27
f 27//27 26//26 28//28
f 27//27 28//28 29//29
f 29//29 28//28 30//30
f 29//29 30//30 31//31
f 31//31 30//30 32//32
f 31//31 32//32 33//33
f 33//33 32//32 34//34
f 33//33 34//34 35//35
f 35//35 34//34 36//36
f 35//35 36//36 37//37
f 37//37 36//36 38//38
f 8//8 39//39 10//10
f 10//10 39//39 40//40
f 10//10 40//40 41//41
f 8//8 6//6 39//39
f 39//39 6//6 4//4
f 39//39 4//4 42//42
f 42//42 4//4 2//2
f 42//42 2//2 43//43
f 43//43 2//2 44//44
f 44//44 2//2 45//45
f 45//45 2//2 46//46
f 46//46 2//2 47//47
f 47//47 2//2 48//48
f 48//48 2//2 49//49
f 10//10 41//41 12//12
f 12//12 41//41 50//50
f 12//12 50//50 51//51
f 51//51 52//52 12//12
f 12//12 52//52 13//13
f 13//13 52//52 53//53
f 13//13 53//53 54//54
f 54//54 15//15 13//13
f 55//55 56//56 57//57
f 57//57 56//56 58//58
f 58//58 56//56 59//59
f 58//58 59//59 60//60
f 60//60 59//59 61//61
f 60//60 61//61 62//62
f 62//62 61//61 63//63
f 62//62 63//63 64//64
f 64//64 63//63 65//65
f 65//65 63//63 66//66
f 65//65 66//66 67//67
f 67//67 66//66 68//68
f 67//67 68//68 69//69
f 69//69 68//68 70//70
f 69//69 70//70 71//71
f 71//71 70//70 72//72
f 71//71 72//72 73//73
f 73//73 72//72 74//74
f 73//73 74//74 75//75
f 76//76 77//77 75//75
f 75//75 77//77 78//78
f 75//75 78//78 73//73
f 77//77 76//76 79//79
f 79//79 76//76 54//54
f 79//79 54//54 53//53
f 79//79 53//53 80//80
f 80//80 53//53 52//52
f 80//80 52//52 81//81
f 81//81 52//52 51//51
f 81//81 51//51 82//82
f 82//82 51//51 50//50
f 82//82 50//50 83//83
f 83//83 50//50 41//41
f 83//83 41//41 84//84
f 84//84 41//41 40//40
f 84//84 40//40 85//85
f 85//85 40//40 39//39
f 85//85 39//39 86//86
f 86//86 39//39 42//42
f 86//86 42//42 87//87
f 87//87 42//42 43//43
f 87//87 43//43 88//88
f 88//88 43//43 44//44
f 88//88 44//44 89//89
f 89//89 44//44 45//45
f 89//89 45//45 90//90
f 90//90 45//45 46//46
f 90//90 46//46 91//91
f 91//91 46//46 47//47
f 91//91 47//47 92//92
f 92//92 47//47 48//48
f 92//92 48//48 93//93
f 93//93 48//48 94//94
f 94//94 48//48 49//49
f 3//3 87//87 1//1
f 1//1 87//87 88//88
f 1//1 88//88 89//89
f 87//87 3//3 86//86
f 86//86 3//3 5//5
f 86//86 5//5 7//7
f 7//7 9//9 86//86
f 86//86 9//9 85//85
f 85//85 9//9 84//84
f 84//84 9//9 11//11
f 84//84 11//11 83//83
f 83//83 11//11 82//82
f 82//82 11//11 81//81
f 81//81 11//11 14//14
f 81//81 14//14 80//80
f 80//80 14//14 79//79
f 79//79 14//14 16//16
f 89//89 90//90 1//1
f 1//1 90//90 91//91
f 1//1 91//91 92//92
f 92//92 93//93 1//1
f 1//1 93//93 94//94
f 15//15 54//54 18//18
f 18//18 54//54 76//76
f 18//18 76//76 75//75
f 74//74 22//22 75//75
f 75//75 22//22 20//20
f 75//75 20//20 18//18
f 74//74 72//72 22//22
f 22//22 72//72 24//24
f 24//24 72//72 26//26
f 26//26 72//72 70//70
f 26//26 70//70 28//28
f 28//28 70//70 68//68
f 28//28 68//68 30//30
f 30//30 68//68 66//66
f 30//30 66//66 32//32
f 32//32 66//66 63//63
f 63//63 61//61 32//32
f 32//32 61//61 59//59
f 32//32 59//59 56//56
f 56//56 55//55 32//32
f 32//32 55//55 95//95
f 32//32 95//95 96//96
f 96//96 97//97 32//32
f 32//32 97//97 34//34
f 34//34 97//97 98//98
f 34//34 98//98 36//36
f 36//36 98//98 38//38
f 38//38 98//98 99//99
f 38//38 99//99 100//100
f 100//100 99//99 101//101
f 97//97 102//102 98//98
f 37//37 38//38 103//103
f 103//103 38//38 100//100
f 103//103 100//100 101//101
f 99//99 104//104 101//101
f 101//101 104//104 105//105
f 101//101 105//105 103//103
f 55//55 57//57 95//95
f 95//95 57//57 106//106
f 95//95 106//106 96//96
f 96//96 106//106 107//107
f 96//96 107//107 108//108
f 108//108 97//97 96//96
f 97//97 108//108 102//102
f 102//102 108//108 109//109
f 64//64 65//65 31//31
f 31//31 65//65 29//29
f 29//29 65//65 67//67
f 29//29 67//67 27//27
f 27//27 67//67 69//69
f 27//27 69//69 25//25
f 25//25 69//69 71//71
f 25//25 71//71 23//23
f 23//23 71//71 73//73
f 23//23 73//73 21//21
f 21//21 73//73 78//78
f 21//21 78//78 19//19
f 19//19 78//78 77//77
f 19//19 77//77 17//17
f 17//17 77//77 79//79
f 17//17 79//79 16//16
f 110//110 98//98 109//109
f 109//109 98//98 102//102
f 106//106 57//57 31//31
f 31//31 57//57 58//58
f 31//31 58//58 60//60
f 60//60 62//62 31//31
f 31//31 62//62 64//64
f 33//33 108//108 31//31
f 31//31 108//108 107//107
f 31//31 107//107 106//106
f 108//108 33//33 110//110
f 110//110 33//33 35//35
f 110//110 35//35 37//37
f 110//110 37//37 104//104
f 104//104 37//37 103//103
f 104//104 103//103 105//105
f 110//110 109//109 108//108
f 99//99 98//98 104//104
f 104//104 98//98 110//110
f 2//2 1//1 49//49
f 49//49 1//1 94//94
# 216 faces, 0 coords texture

# End of File
