####
#
# OBJ File Generated by Meshlab
#
####
# Object franka_finger_lower_wide_v2.obj
#
# Vertices: 76
# Faces: 148
#
####
mtllib ./franka_finger_lower_wide_v2.obj.mtl

vn 0.694702 0.040331 -0.718166
v 0.012000 0.020000 0.016000
vn -0.694702 0.040331 -0.718166
v -0.012000 0.020000 0.016000
vn 0.682753 0.162585 -0.712330
v 0.012000 0.021110 0.016130
vn -0.682753 0.162585 -0.712330
v -0.012000 0.021110 0.016130
vn 0.682753 0.317017 -0.658292
v 0.012000 0.022170 0.016500
vn -0.682753 0.317017 -0.658292
v -0.012000 0.022170 0.016500
vn 0.682753 0.455552 -0.571244
v 0.012000 0.023120 0.017090
vn -0.682753 0.455553 -0.571244
v -0.012000 0.023120 0.017090
vn 0.682753 0.571245 -0.455553
v 0.012000 0.023910 0.017880
vn -0.682753 0.571244 -0.455552
v -0.012000 0.023910 0.017880
vn 0.682753 0.658292 -0.317017
v 0.012000 0.024500 0.018830
vn -0.682753 0.658292 -0.317017
v -0.012000 0.024500 0.018830
vn 0.682753 0.712330 -0.162585
v 0.012000 0.024870 0.019890
vn -0.682753 0.712330 -0.162585
v -0.012000 0.024870 0.019890
vn 0.694702 0.718166 -0.040331
v 0.012000 0.025000 0.021000
vn -0.694702 0.718166 -0.040331
v -0.012000 0.025000 0.021000
vn -0.725200 -0.680061 0.107711
v -0.012000 0.019880 0.029440
vn -0.725200 -0.654839 0.212770
v -0.012000 0.019510 0.027910
vn -0.725200 -0.613492 0.312590
v -0.012000 0.018910 0.026460
vn -0.725200 -0.557039 0.404713
v -0.012000 0.018090 0.025120
vn -0.725200 -0.486870 0.486870
v -0.012000 0.017070 0.023930
vn -0.730252 0.028563 -0.682581
v -0.012000 0.016500 0.016000
vn -0.725200 -0.404712 0.557039
v -0.012000 0.015880 0.022910
vn -0.725200 -0.312590 0.613492
v -0.012000 0.014540 0.022090
vn -0.725200 -0.212770 0.654839
v -0.012000 0.013090 0.021490
vn -0.725200 -0.107711 0.680061
v -0.012000 0.011560 0.021120
vn -0.716051 -0.027405 0.697510
v -0.012000 0.010000 0.021000
vn -0.610012 -0.584548 -0.534966
v -0.012000 -0.000000 0.016000
vn -0.577350 -0.577350 0.577350
v -0.012000 -0.000000 0.021000
vn -0.716051 -0.697510 0.027405
v -0.012000 0.020000 0.031000
vn -0.577350 0.577350 0.577350
v -0.012000 0.025000 0.081000
vn -0.577350 -0.577350 0.577350
v -0.012000 0.020000 0.081000
vn 0.730252 0.028564 -0.682581
v 0.012000 0.016500 0.016000
vn 0.716051 -0.027405 0.697510
v 0.012000 0.010000 0.021000
vn 0.725200 -0.107711 0.680061
v 0.012000 0.011560 0.021120
vn 0.725200 -0.212770 0.654838
v 0.012000 0.013090 0.021490
vn 0.725200 -0.312590 0.613492
v 0.012000 0.014540 0.022090
vn 0.725200 -0.404712 0.557039
v 0.012000 0.015880 0.022910
vn 0.725200 -0.486870 0.486870
v 0.012000 0.017070 0.023930
vn 0.725200 -0.557039 0.404713
v 0.012000 0.018090 0.025120
vn 0.725200 -0.613492 0.312590
v 0.012000 0.018910 0.026460
vn 0.725200 -0.654839 0.212770
v 0.012000 0.019510 0.027910
vn 0.725200 -0.680061 0.107711
v 0.012000 0.019880 0.029440
vn 0.716051 -0.697510 0.027405
v 0.012000 0.020000 0.031000
vn 0.577350 -0.577350 0.577350
v 0.012000 0.020000 0.081000
vn 0.690278 -0.722128 -0.045243
v 0.009000 0.000000 0.013000
vn 0.690278 0.722128 -0.045243
v 0.009000 0.016500 0.013000
vn 0.652124 -0.737700 -0.174736
v 0.009100 0.000000 0.013780
vn 0.652124 0.737700 -0.174736
v 0.009100 0.016500 0.013780
vn 0.584679 -0.737700 -0.337564
v 0.009400 0.000000 0.014500
vn 0.584679 0.737700 -0.337564
v 0.009400 0.016500 0.014500
vn 0.477388 -0.737700 -0.477388
v 0.009880 0.000000 0.015120
vn 0.477388 0.737700 -0.477388
v 0.009880 0.016500 0.015120
vn 0.337564 -0.737700 -0.584679
v 0.010500 0.000000 0.015600
vn 0.337564 0.737700 -0.584679
v 0.010500 0.016500 0.015600
vn 0.174736 -0.737700 -0.652124
v 0.011220 0.000000 0.015900
vn 0.174736 0.737700 -0.652124
v 0.011220 0.016500 0.015900
vn 0.610012 -0.584548 -0.534967
v 0.012000 0.000000 0.016000
vn -0.174736 -0.737700 -0.652124
v -0.011220 -0.000000 0.015900
vn -0.174736 0.737701 -0.652124
v -0.011220 0.016500 0.015900
vn -0.337564 -0.737700 -0.584679
v -0.010500 -0.000000 0.015600
vn -0.337564 0.737700 -0.584678
v -0.010500 0.016500 0.015600
vn -0.477388 -0.737700 -0.477388
v -0.009880 -0.000000 0.015120
vn -0.477388 0.737700 -0.477388
v -0.009880 0.016500 0.015120
vn -0.584679 -0.737700 -0.337564
v -0.009400 -0.000000 0.014500
vn -0.584679 0.737700 -0.337564
v -0.009400 0.016500 0.014500
vn -0.652124 -0.737700 -0.174736
v -0.009100 -0.000000 0.013780
vn -0.652124 0.737700 -0.174736
v -0.009100 0.016500 0.013780
vn -0.690278 -0.722128 -0.045243
v -0.009000 -0.000000 0.013000
vn -0.690278 0.722128 -0.045243
v -0.009000 0.016500 0.013000
vn -0.577350 0.577350 -0.577350
v -0.009000 0.016500 0.000000
vn -0.577350 -0.577350 -0.577350
v -0.009000 -0.000000 0.000000
vn 0.577350 0.577350 0.577350
v 0.012000 0.025000 0.081000
vn 0.577350 -0.577350 0.577350
v 0.012000 0.000000 0.021000
vn 0.577350 -0.577350 -0.577350
v 0.009000 0.000000 0.000000
vn 0.577350 0.577350 -0.577350
v 0.009000 0.016500 0.000000
# 76 vertices, 0 vertices normals


usemtl material_0
f 1//1 2//2 3//3
f 3//3 2//2 4//4
f 3//3 4//4 5//5
f 5//5 4//4 6//6
f 5//5 6//6 7//7
f 7//7 6//6 8//8
f 7//7 8//8 9//9
f 9//9 8//8 10//10
f 9//9 10//10 11//11
f 11//11 10//10 12//12
f 11//11 12//12 13//13
f 13//13 12//12 14//14
f 13//13 14//14 15//15
f 15//15 14//14 16//16
f 14//14 12//12 16//16
f 16//16 12//12 10//10
f 16//16 10//10 17//17
f 17//17 10//10 8//8
f 17//17 8//8 18//18
f 18//18 8//8 6//6
f 18//18 6//6 4//4
f 18//18 4//4 19//19
f 19//19 4//4 2//2
f 19//19 2//2 20//20
f 20//20 2//2 21//21
f 21//21 2//2 22//22
f 21//21 22//22 23//23
f 23//23 22//22 24//24
f 24//24 22//22 25//25
f 25//25 22//22 26//26
f 26//26 22//22 27//27
f 27//27 22//22 28//28
f 27//27 28//28 29//29
f 17//17 30//30 16//16
f 16//16 30//30 31//31
f 31//31 30//30 32//32
f 2//2 1//1 22//22
f 22//22 1//1 33//33
f 27//27 34//34 26//26
f 26//26 34//34 35//35
f 26//26 35//35 25//25
f 25//25 35//35 36//36
f 25//25 36//36 24//24
f 24//24 36//36 37//37
f 24//24 37//37 23//23
f 23//23 37//37 38//38
f 23//23 38//38 21//21
f 21//21 38//38 39//39
f 21//21 39//39 20//20
f 20//20 39//39 40//40
f 20//20 40//40 19//19
f 19//19 40//40 41//41
f 19//19 41//41 18//18
f 18//18 41//41 42//42
f 18//18 42//42 17//17
f 17//17 42//42 43//43
f 17//17 43//43 30//30
f 30//30 43//43 44//44
f 30//30 44//44 32//32
f 32//32 44//44 45//45
f 46//46 47//47 48//48
f 48//48 47//47 49//49
f 48//48 49//49 50//50
f 50//50 49//49 51//51
f 50//50 51//51 52//52
f 52//52 51//51 53//53
f 52//52 53//53 54//54
f 54//54 53//53 55//55
f 54//54 55//55 56//56
f 56//56 55//55 57//57
f 56//56 57//57 58//58
f 58//58 57//57 33//33
f 28//28 22//22 59//59
f 59//59 22//22 60//60
f 59//59 60//60 61//61
f 61//61 60//60 62//62
f 61//61 62//62 63//63
f 63//63 62//62 64//64
f 63//63 64//64 65//65
f 65//65 64//64 66//66
f 65//65 66//66 67//67
f 67//67 66//66 68//68
f 67//67 68//68 69//69
f 69//69 68//68 70//70
f 70//70 71//71 69//69
f 69//69 71//71 72//72
f 73//73 31//31 45//45
f 45//45 31//31 32//32
f 3//3 41//41 1//1
f 1//1 41//41 40//40
f 1//1 40//40 39//39
f 41//41 3//3 42//42
f 42//42 3//3 5//5
f 42//42 5//5 7//7
f 42//42 7//7 43//43
f 43//43 7//7 9//9
f 43//43 9//9 15//15
f 15//15 9//9 11//11
f 15//15 11//11 13//13
f 43//43 15//15 44//44
f 44//44 15//15 73//73
f 44//44 73//73 45//45
f 1//1 39//39 33//33
f 33//33 39//39 38//38
f 33//33 38//38 37//37
f 37//37 36//36 33//33
f 33//33 36//36 35//35
f 33//33 35//35 34//34
f 74//74 58//58 34//34
f 34//34 58//58 33//33
f 34//34 27//27 74//74
f 74//74 27//27 29//29
f 16//16 31//31 15//15
f 15//15 31//31 73//73
f 75//75 72//72 76//76
f 76//76 72//72 71//71
f 46//46 75//75 47//47
f 47//47 75//75 76//76
f 72//72 75//75 69//69
f 69//69 75//75 46//46
f 69//69 46//46 67//67
f 67//67 46//46 48//48
f 67//67 48//48 65//65
f 65//65 48//48 50//50
f 65//65 50//50 63//63
f 63//63 50//50 52//52
f 63//63 52//52 29//29
f 29//29 52//52 74//74
f 74//74 52//52 54//54
f 74//74 54//54 56//56
f 56//56 58//58 74//74
f 28//28 59//59 29//29
f 29//29 59//59 61//61
f 29//29 61//61 63//63
f 22//22 33//33 60//60
f 60//60 33//33 57//57
f 60//60 57//57 62//62
f 62//62 57//57 55//55
f 62//62 55//55 64//64
f 64//64 55//55 53//53
f 64//64 53//53 66//66
f 66//66 53//53 51//51
f 66//66 51//51 68//68
f 68//68 51//51 49//49
f 68//68 49//49 70//70
f 70//70 49//49 47//47
f 70//70 47//47 76//76
f 76//76 71//71 70//70
# 148 faces, 0 coords texture

# End of File
